<?xml version="1.0" encoding="utf-8"?>
<!-- Generator: Adobe Illustrator 19.0.0, SVG Export Plug-In . SVG Version: 6.00 Build 0)  -->
<svg version="1.1" id="Layer_1" xmlns="http://www.w3.org/2000/svg" xmlns:xlink="http://www.w3.org/1999/xlink" x="0px"
     y="0px"
     viewBox="40.7 277.5 226.1 63.1" style="enable-background:new 40.7 277.5 226.1 63.1;" xml:space="preserve">
<style type="text/css">
	.st0{fill:#ffffff;}
</style>
    <g id="Background">
</g>
    <g id="Objects">
	<g>
		<g>
			<path class="st0" d="M239.7,285.8c-4.4,0-7.9,3.6-7.9,7.9c0,0,0,12.4,0,19.4h27.1c4.4,0,7.9-3.6,7.9-7.9v-19.4
				C261.4,285.8,239.7,285.8,239.7,285.8z M257.4,303.1c0,2-1.6,3.6-3.6,3.6h-12.4c0-3.2,0-10.8,0-10.8c0-2,1.6-3.6,3.6-3.6
				c0,0,9.9,0,12.4,0V303.1z"/>
            <path class="st0" d="M108.6,313.1H87.9c-4.4,0-7.9-3.6-7.9-7.9v-19.4h8.9V303c0,2,1.6,3.6,3.6,3.6h16.1
				C108.6,306.8,108.6,307.5,108.6,313.1z"/>
            <path class="st0" d="M53.2,292.3h19.7c0-0.1,0-0.8,0-6.5H48.6c-4.4,0-7.9,3.6-7.9,7.9v3.8v4.3v3.3c0,4.4,3.6,7.9,7.9,7.9h24.3
				c0-5.6,0-6.4,0-6.5H53.2c-2,0-3.6-1.6-3.6-3.6v-1.1c4.2,0,9.1,0,9.1,0v-4.7h-9.1v-1.3C49.6,293.9,51.2,292.3,53.2,292.3z"/>
            <path class="st0" d="M166,313.1h-9.5v-17.2c0-2-1.6-3.6-3.6-3.6h-12.4v20.9H131c0,0,0-20.3,0-27.3h27c4.4,0,7.9,3.6,7.9,7.9v19.3
				H166z"/>
            <path class="st0" d="M182.5,313.1H173c0,0,0-18.6,0-27.3h9.5V313.1z"/>
            <path class="st0" d="M196.1,277.7c0,0,3.2,1.7,7.3,1.2c1.3-0.2,2.6-0.4,4.1-0.8c6.4-1.7,11.5,0.8,11.9,1.2h0.1l0,0l0,0l0,0
				l-1.2,2.5c0,0-2.6-1.4-6.2-1.3c-0.1,0-0.2,0-0.3,0c-0.1,0-0.3,0-0.5,0c-1.4,0.2-2.9,0.4-4.5,0.8c-6.7,1.7-11.9-1-11.9-1.3
				L196.1,277.7z M224.6,313.1h-9.5v-17.2c0-2-1.6-3.6-3.6-3.6H199v20.9h-9.5c0,0,0-20.3,0-27.3h27.1c4.4,0,7.9,3.6,7.9,7.9v19.3
				H224.6z"/>
		</g>
        <g>
			<path class="st0" d="M40.6,340.7V326c1.9-0.1,3.8-0.2,5.5-0.2c2.2,0,3.8,0.5,4.7,1.6s1.3,3.1,1.3,5.9c0,2.8-0.4,4.8-1.3,5.9
				c-0.9,1.1-2.4,1.6-4.7,1.6C44.4,340.8,42.6,340.8,40.6,340.7z M43.3,328v10.5c1.1,0,2,0,2.8,0c1.2,0,2.1-0.4,2.5-1.1
				c0.5-0.8,0.7-2.1,0.7-4.2c0-2-0.2-3.4-0.7-4.2c-0.5-0.8-1.3-1.1-2.5-1.1c-0.4,0-0.9,0-1.5,0C44,328,43.5,328,43.3,328z"/>
            <path class="st0" d="M57.5,340.7h-2.7V326h2.7V340.7z"/>
            <path class="st0" d="M71.4,332.2v8.5h-2l-0.2-1.4c-1.2,1.1-2.7,1.7-4.3,1.7s-2.8-0.6-3.5-1.8c-0.7-1.2-1.1-3.2-1.1-5.8
				c0-2.9,0.5-4.9,1.4-5.9s2.6-1.6,5-1.6c1.6,0,3,0.2,4.2,0.5l-0.2,2c-1.4-0.1-2.7-0.1-3.9-0.1c-0.8,0-1.4,0.1-1.8,0.2
				c-0.4,0.1-0.8,0.3-1.1,0.7s-0.5,0.9-0.7,1.6c-0.1,0.7-0.2,1.7-0.2,2.9c0,2,0.2,3.3,0.6,4.1c0.4,0.8,1.1,1.1,2.1,1.1
				c0.9,0,2-0.3,3.1-1v-5.4h2.6V332.2z"/>
            <path class="st0" d="M77,340.7h-2.7V326H77V340.7z"/>
            <path class="st0" d="M90.8,328.3h-4.5v12.4h-2.7v-12.4h-4.5V326h11.7V328.3z"/>
            <path class="st0" d="M99.5,336.5H94l-1.2,4.1h-2.7l4.4-14c0.1-0.5,0.4-0.7,1-0.7h2.6c0.5,0,0.8,0.2,1,0.7l4.4,14h-2.7L99.5,336.5
				z M98.8,334.3l-1.5-5.1c-0.2-0.8-0.3-1.2-0.3-1.3h-0.6l-0.3,1.3l-1.5,5.1H98.8z"/>
            <path class="st0" d="M107.8,326v11.2c0,0.5,0.1,0.8,0.3,0.9c0.2,0.2,0.5,0.3,1,0.3h5.1l0.1,2.1c-1.4,0.1-3.3,0.2-5.8,0.2
				c-2.2,0-3.3-1-3.3-3V326H107.8z"/>
            <path class="st0" d="M120.4,340.7V326c1.9-0.1,3.8-0.2,5.5-0.2c2.2,0,3.8,0.5,4.7,1.6s1.3,3.1,1.3,5.9c0,2.8-0.4,4.8-1.3,5.9
				c-0.9,1.1-2.4,1.6-4.7,1.6C124.2,340.8,122.4,340.8,120.4,340.7z M123.1,328v10.5c1.1,0,2,0,2.8,0c1.2,0,2.1-0.4,2.5-1.1
				c0.5-0.8,0.7-2.1,0.7-4.2c0-2-0.2-3.4-0.7-4.2c-0.5-0.8-1.3-1.1-2.5-1.1c-0.4,0-0.9,0-1.5,0C123.8,328,123.4,328,123.1,328z"/>
            <path class="st0" d="M144.1,338.5l0.1,2c-1.3,0.1-3.4,0.2-6.5,0.2c-1,0-1.7-0.2-2.3-0.7c-0.6-0.5-0.8-1.2-0.9-2v-9.2
				c0-0.9,0.3-1.5,0.9-2s1.3-0.7,2.3-0.7c3,0,5.2,0.1,6.5,0.2l-0.1,2h-5.7c-0.4,0-0.7,0.1-0.8,0.3c-0.1,0.2-0.2,0.5-0.2,1v2.6h6v2
				h-6v3.3c0,0.5,0.1,0.8,0.2,1c0.2,0.2,0.4,0.3,0.8,0.3h5.7V338.5z"/>
            <path class="st0" d="M158.1,326l-4.1,13.9c-0.1,0.5-0.5,0.7-1,0.7h-2.5c-0.2,0-0.4-0.1-0.6-0.2c-0.2-0.1-0.3-0.3-0.4-0.5
				l-4.2-13.9h2.7l3,11c0,0.2,0.1,0.4,0.2,0.8s0.1,0.6,0.2,0.8h0.5c0.1-0.5,0.2-1,0.4-1.6l3-11H158.1z"/>
            <path class="st0" d="M169.4,338.5l0.1,2c-1.3,0.1-3.4,0.2-6.5,0.2c-1,0-1.7-0.2-2.3-0.7c-0.6-0.5-0.8-1.2-0.9-2v-9.2
				c0-0.9,0.3-1.5,0.9-2s1.3-0.7,2.3-0.7c3,0,5.2,0.1,6.5,0.2l-0.1,2h-5.7c-0.4,0-0.7,0.1-0.8,0.3c-0.1,0.2-0.2,0.5-0.2,1v2.6h6v2
				h-6v3.3c0,0.5,0.1,0.8,0.2,1c0.2,0.2,0.4,0.3,0.8,0.3h5.7V338.5z"/>
            <path class="st0" d="M174.7,326v11.2c0,0.5,0.1,0.8,0.3,0.9c0.2,0.2,0.5,0.3,1,0.3h5.1l0.1,2.1c-1.4,0.1-3.3,0.2-5.8,0.2
				c-2.2,0-3.3-1-3.3-3V326H174.7z"/>
            <path class="st0" d="M188.5,325.7c2.3,0,3.8,0.5,4.7,1.6c0.9,1.1,1.3,3.1,1.3,6s-0.4,4.9-1.3,6s-2.5,1.6-4.7,1.6
				c-2.3,0-3.8-0.5-4.7-1.6c-0.9-1.1-1.3-3.1-1.3-6s0.4-4.9,1.3-6C184.6,326.3,186.2,325.7,188.5,325.7z M188.5,328
				c-1.2,0-2.1,0.4-2.5,1.1c-0.5,0.8-0.7,2.2-0.7,4.2s0.2,3.4,0.7,4.2c0.5,0.8,1.3,1.1,2.5,1.1s2.1-0.4,2.6-1.1
				c0.5-0.8,0.7-2.2,0.7-4.2s-0.2-3.4-0.7-4.2C190.6,328.4,189.7,328,188.5,328z"/>
            <path class="st0" d="M197.3,340.7V326c1.3-0.1,3-0.2,5.3-0.2c1.9,0,3.3,0.3,4,1c0.7,0.7,1.1,1.9,1.1,3.7c0,1.8-0.3,3.1-1,3.7
				c-0.7,0.7-1.9,1-3.7,1c-1,0-2-0.1-3-0.2v5.6L197.3,340.7L197.3,340.7z M199.9,333.1h2.6c0.9,0,1.6-0.2,1.9-0.5
				c0.3-0.3,0.5-1,0.5-2s-0.2-1.7-0.5-2c-0.3-0.3-1-0.5-1.9-0.5h-2.6V333.1z"/>
            <path class="st0" d="M221.7,326h2.7c0.7,0,1,0.3,1,1l0.6,13.6h-2.6l-0.5-12.5h-0.4l-2.5,9.8c-0.2,0.6-0.5,0.9-1.1,0.9h-2
				c-0.6,0-1-0.3-1.1-0.9l-2.6-9.8h-0.4l-0.5,12.5h-2.6l0.6-13.6c0-0.7,0.4-1,1-1h2.8c0.6,0,0.9,0.3,1.1,0.9l2.1,8
				c0,0.1,0.2,0.8,0.4,2h0.3c0.2-0.8,0.3-1.5,0.4-2l2.1-7.9C220.8,326.3,221.1,326,221.7,326z"/>
            <path class="st0" d="M238.4,338.5l0.1,2c-1.3,0.1-3.4,0.2-6.5,0.2c-1,0-1.7-0.2-2.3-0.7c-0.6-0.5-0.8-1.2-0.9-2v-9.2
				c0-0.9,0.3-1.5,0.9-2s1.3-0.7,2.3-0.7c3,0,5.2,0.1,6.5,0.2l-0.1,2h-5.7c-0.4,0-0.7,0.1-0.8,0.3c-0.1,0.2-0.2,0.5-0.2,1v2.6h6v2
				h-6v3.3c0,0.5,0.1,0.8,0.2,1c0.2,0.2,0.4,0.3,0.8,0.3h5.7V338.5z"/>
            <path class="st0" d="M253.1,326v13.7c0,0.7-0.3,1-1,1H250c-0.5,0-0.9-0.3-1.1-0.8l-4.1-9c-0.5-1.1-0.8-1.8-0.9-2.2h-0.3
				c0.1,0.6,0.1,1.3,0.1,2.2v9.8h-2.6V327c0-0.7,0.3-1,1-1h2.1c0.3,0,0.5,0.1,0.7,0.2c0.2,0.1,0.3,0.3,0.4,0.6l4,8.7
				c0,0.1,0.2,0.4,0.4,1c0.3,0.6,0.4,1,0.6,1.3h0.3c-0.1-0.9-0.1-1.7-0.1-2.4v-9.5h2.6V326z"/>
            <path class="st0" d="M266.9,328.3h-4.5v12.4h-2.7v-12.4h-4.5V326h11.7V328.3z"/>
		</g>
	</g>
</g>
</svg>
