<?xml version="1.0" encoding="UTF-8"?>
<svg width="98px" height="98px" viewBox="0 0 98 98" version="1.1" xmlns="http://www.w3.org/2000/svg" xmlns:xlink="http://www.w3.org/1999/xlink">
    <!-- Generator: Sketch 52.6 (67491) - http://www.bohemiancoding.com/sketch -->
    <title>Logo</title>
    <desc>Created with Sketch.</desc>
    <defs>
        <circle id="path-1" cx="46" cy="46" r="46"></circle>
    </defs>
    <g id="Page-1" stroke="none" stroke-width="1" fill="none" fill-rule="evenodd">
        <g id="Logos" transform="translate(-1.000000, -3.000000)">
            <g id="Logo" transform="translate(4.000000, 6.000000)">
                <g>
                    <mask id="mask-2" fill="white">
                        <use xlink:href="#path-1"></use>
                    </mask>
                    <use id="Oval" stroke="#12c2e9" stroke-width="5" fill-rule="nonzero" xlink:href="#path-1"></use>
                    <g id="Waves" mask="url(#mask-2)" fill="#12c2e9">
                        <g transform="translate(0.000000, 61.000000)">
                            <path d="M100.029213,23.523409 C96.9495673,23.523409 94.4858503,22.823409 92.3916909,21.423409 C91.2830183,20.723409 90.2975315,19.923409 89.3120448,19.123409 C88.6961155,18.623409 87.9570005,18.123409 87.2178854,17.723409 C85.8628411,16.923409 84.3846109,16.823409 82.9063807,17.623409 C81.920894,18.123409 81.058593,18.723409 80.319478,19.323409 C79.457177,20.023409 78.4716903,20.723409 77.4862035,21.323409 C72.9283272,24.223409 67.2617782,24.223409 62.7039019,21.323409 C61.7184151,20.623409 60.7329283,19.923409 59.8706274,19.223409 C59.1315123,18.623409 58.3923972,18.023409 57.4069105,17.623409 C56.175052,17.023409 54.9431935,16.923409 53.7113351,17.523409 C52.6026624,18.023409 51.6171757,18.723409 50.7548747,19.423409 C49.769388,20.123409 48.907087,20.823409 47.9216003,21.423409 C43.3637239,24.223409 37.697175,24.223409 33.2624845,21.223409 C32.2769977,20.523409 31.291511,19.823409 30.42921,19.123409 C29.8132808,18.623409 29.0741657,18.123409 28.3350506,17.623409 C26.8568205,16.823409 25.5017762,16.823409 24.1467319,17.523409 C22.9148734,18.123409 21.9293866,18.923409 20.820714,19.723409 C19.4656697,20.723409 18.1106254,21.723409 16.5092094,22.423409 C12.1977047,24.123409 8.00938594,23.823409 4.19062469,21.523409 C2.95876622,20.823409 1.97327945,20.023409 0.987792673,19.223409 C-0.244065794,18.223409 -0.367251641,16.623409 0.864606826,15.623409 C2.09646529,14.623409 3.94425299,14.623409 5.29929731,15.623409 C6.03841239,16.223409 6.77752747,16.723409 7.51664255,17.323409 C9.4876161,18.823409 12.4440764,18.923409 14.6614217,17.423409 C15.8932801,16.623409 17.0019527,15.723409 18.1106254,14.923409 C19.4656697,13.923409 20.820714,13.123409 22.5453158,12.623409 C25.5017762,11.723409 28.2118648,11.923409 30.9219534,13.223409 C32.2769977,13.823409 33.5088562,14.623409 34.6175288,15.523409 C35.3566439,16.123409 36.095759,16.723409 36.9580599,17.223409 C39.1754052,18.923409 42.2550513,18.923409 44.5955824,17.123409 C45.8274409,16.223409 46.9361135,15.323409 48.167972,14.523409 C49.8925738,13.323409 51.7403615,12.423409 54.0808926,12.123409 C56.6677954,11.723409 59.0083265,12.323409 61.2256717,13.523409 C62.3343443,14.123409 63.3198311,14.723409 64.182132,15.523409 C65.1676188,16.223409 66.0299197,17.023409 67.1385924,17.723409 C68.7400084,18.723409 71.3269111,18.823409 72.9283272,17.923409 C74.4065573,17.123409 75.6384158,16.123409 76.8702742,15.123409 C78.2253186,14.223409 79.5803629,13.323409 81.1817789,12.723409 C84.2614251,11.623409 87.2178854,11.823409 90.0511598,13.223409 C91.2830183,13.823409 92.5148768,14.623409 93.5003636,15.423409 C94.3626645,16.023409 95.1017796,16.623409 95.9640805,17.323409 C97.935054,18.823409 101.0147,18.923409 103.232045,17.323409 C104.340718,16.623409 105.326205,15.823409 106.311692,15.023409 C107.666736,14.123409 109.391338,14.123409 110.623196,15.123409 C111.608683,15.923409 111.978241,17.423409 110.992754,18.323409 C108.775409,20.323409 106.434877,22.123409 103.10886,23.123409 C102.000187,23.323409 100.891514,23.423409 100.029213,23.523409 Z" id="Wave-2"></path>
                            <path d="M100.029213,11.523409 C96.9495673,11.523409 94.4858503,10.823409 92.3916909,9.42340896 C91.2830183,8.72340896 90.2975315,7.92340896 89.3120448,7.12340896 C88.6961155,6.62340896 87.9570005,6.12340896 87.2178854,5.72340896 C85.8628411,4.92340896 84.3846109,4.82340896 82.9063807,5.62340896 C81.920894,6.12340896 81.058593,6.72340896 80.319478,7.32340896 C79.457177,8.02340896 78.4716903,8.72340896 77.4862035,9.32340896 C72.9283272,12.223409 67.2617782,12.223409 62.7039019,9.32340896 C61.7184151,8.62340896 60.7329283,7.92340896 59.8706274,7.22340896 C59.1315123,6.62340896 58.3923972,6.02340896 57.4069105,5.62340896 C56.175052,5.02340896 54.9431935,4.92340896 53.7113351,5.52340896 C52.6026624,6.02340896 51.6171757,6.72340896 50.7548747,7.42340896 C49.769388,8.12340896 48.907087,8.82340896 47.9216003,9.42340896 C43.3637239,12.223409 37.697175,12.223409 33.2624845,9.22340896 C32.2769977,8.52340896 31.291511,7.82340896 30.42921,7.12340896 C29.8132808,6.62340896 29.0741657,6.12340896 28.3350506,5.62340896 C26.8568205,4.82340896 25.5017762,4.82340896 24.1467319,5.52340896 C22.9148734,6.12340896 21.9293866,6.92340896 20.820714,7.72340896 C19.4656697,8.72340896 18.1106254,9.72340896 16.5092094,10.423409 C12.1977047,12.123409 8.00938594,11.823409 4.19062469,9.52340896 C2.95876622,8.82340896 1.97327945,8.02340896 0.987792673,7.22340896 C-0.244065794,6.22340896 -0.367251641,4.62340896 0.864606826,3.62340896 C2.09646529,2.62340896 3.94425299,2.62340896 5.29929731,3.62340896 C6.03841239,4.22340896 6.77752747,4.72340896 7.51664255,5.32340896 C9.4876161,6.82340896 12.4440764,6.92340896 14.6614217,5.42340896 C15.8932801,4.62340896 17.0019527,3.72340896 18.1106254,2.92340896 C19.4656697,1.92340896 20.820714,1.12340896 22.5453158,0.623408959 C25.5017762,-0.276591041 28.2118648,-0.0765910406 30.9219534,1.22340896 C32.2769977,1.82340896 33.5088562,2.62340896 34.6175288,3.52340896 C35.3566439,4.12340896 36.095759,4.72340896 36.9580599,5.22340896 C39.1754052,6.92340896 42.2550513,6.92340896 44.5955824,5.12340896 C45.8274409,4.22340896 46.9361135,3.32340896 48.167972,2.52340896 C49.8925738,1.32340896 51.7403615,0.423408959 54.0808926,0.123408959 C56.6677954,-0.276591041 59.0083265,0.323408959 61.2256717,1.52340896 C62.3343443,2.12340896 63.3198311,2.72340896 64.182132,3.52340896 C65.1676188,4.22340896 66.0299197,5.02340896 67.1385924,5.72340896 C68.7400084,6.72340896 71.3269111,6.82340896 72.9283272,5.92340896 C74.4065573,5.12340896 75.6384158,4.12340896 76.8702742,3.12340896 C78.2253186,2.22340896 79.5803629,1.32340896 81.1817789,0.723408959 C84.2614251,-0.376591041 87.2178854,-0.176591041 90.0511598,1.22340896 C91.2830183,1.82340896 92.5148768,2.62340896 93.5003636,3.42340896 C94.3626645,4.02340896 95.1017796,4.62340896 95.9640805,5.32340896 C97.935054,6.82340896 101.0147,6.92340896 103.232045,5.32340896 C104.340718,4.62340896 105.326205,3.82340896 106.311692,3.02340896 C107.666736,2.12340896 109.391338,2.12340896 110.623196,3.12340896 C111.608683,3.92340896 111.978241,5.42340896 110.992754,6.32340896 C108.775409,8.32340896 106.434877,10.123409 103.10886,11.123409 C102.000187,11.323409 100.891514,11.423409 100.029213,11.523409 Z" id="Wave-1"></path>
                        </g>
                    </g>
                    <path d="M37.4766249,28.8038349 C31.3917658,32.3643454 27.5060469,38.1511507 25.7364149,44.9461007 C23.966783,51.7395053 26.7422057,51.628809 28.3050177,45.6343557 C29.1118651,42.5395438 30.5197175,39.7017619 32.431851,37.2481801 C34.2233982,34.9493303 36.4576284,32.9877504 39.0549873,31.4680364 C47.7740788,26.3698922 59.0434308,29.2705338 64.1750523,37.9353699 C68.1932675,44.7225931 65.9073633,53.4909683 59.0807516,57.4857251 C56.5071657,58.9909062 53.4966144,59.4096989 50.6042459,58.6663805 C47.7134324,57.9230621 45.2860199,56.1041729 43.769859,53.5466013 C41.3548868,49.4668497 42.7295394,44.1940798 46.8317265,41.7956803 C48.3509975,40.9070981 50.1268496,40.6598404 51.832725,41.0987228 C53.5386004,41.5376051 54.9692343,42.6116307 55.8633804,44.1199025 C56.2987907,44.8570394 57.2520283,45.1012064 57.9906708,44.6685054 C58.7324234,44.2358045 58.9796742,43.2869532 58.5427089,42.552907 C57.2287028,40.3306786 55.1216279,38.7528656 52.6117984,38.1053595 C50.101969,37.4593989 47.4879521,37.8225586 45.2533641,39.1314789 C39.6723369,42.3952802 37.8031827,49.5642074 41.0889755,55.1120514 C43.0249964,58.3820342 46.1272948,60.7062563 49.8236174,61.6581984 C53.5199399,62.6085951 57.367101,62.0739003 60.657559,60.1468358 C68.9630107,55.2882225 71.7434166,44.6205993 66.8543808,36.366829 C60.8534936,26.2339005 47.6745565,22.8418343 37.4766249,28.8038349 Z" id="Spiral" stroke="#12c2e9" stroke-width="2.5" fill="#12c2e9" mask="url(#mask-2)" transform="translate(47.216466, 43.990245) rotate(-105.000000) translate(-47.216466, -43.990245) "></path>
                </g>
            </g>
        </g>
    </g>
</svg>
