<?xml version="1.0" encoding="UTF-8"?>
<svg width="323px" height="103px" viewBox="0 0 323 103" version="1.1" xmlns="http://www.w3.org/2000/svg" xmlns:xlink="http://www.w3.org/1999/xlink">
    <!-- Generator: Sketch 52.6 (67491) - http://www.bohemiancoding.com/sketch -->
    <title>Eddy Logo Brand Name White</title>
    <desc>Created with Sketch.</desc>
    <defs>
        <circle id="path-1" cx="46" cy="46" r="46"></circle>
    </defs>
    <g id="Brand-w-Logo" stroke="none" stroke-width="1" fill="none" fill-rule="evenodd">
        <g id="Logo" transform="translate(12.000000, 6.000000)">
            <g>
                <mask id="mask-2" fill="white">
                    <use xlink:href="#path-1"></use>
                </mask>
                <use id="Oval" stroke="#FFFFFF" stroke-width="5" fill-rule="nonzero" xlink:href="#path-1"></use>
                <g id="Waves" mask="url(#mask-2)" fill="#FFFFFF">
                    <g transform="translate(0.000000, 61.000000)">
                        <path d="M100.029213,23.523409 C96.9495673,23.523409 94.4858503,22.823409 92.3916909,21.423409 C91.2830183,20.723409 90.2975315,19.923409 89.3120448,19.123409 C88.6961155,18.623409 87.9570005,18.123409 87.2178854,17.723409 C85.8628411,16.923409 84.3846109,16.823409 82.9063807,17.623409 C81.920894,18.123409 81.058593,18.723409 80.319478,19.323409 C79.457177,20.023409 78.4716903,20.723409 77.4862035,21.323409 C72.9283272,24.223409 67.2617782,24.223409 62.7039019,21.323409 C61.7184151,20.623409 60.7329283,19.923409 59.8706274,19.223409 C59.1315123,18.623409 58.3923972,18.023409 57.4069105,17.623409 C56.175052,17.023409 54.9431935,16.923409 53.7113351,17.523409 C52.6026624,18.023409 51.6171757,18.723409 50.7548747,19.423409 C49.769388,20.123409 48.907087,20.823409 47.9216003,21.423409 C43.3637239,24.223409 37.697175,24.223409 33.2624845,21.223409 C32.2769977,20.523409 31.291511,19.823409 30.42921,19.123409 C29.8132808,18.623409 29.0741657,18.123409 28.3350506,17.623409 C26.8568205,16.823409 25.5017762,16.823409 24.1467319,17.523409 C22.9148734,18.123409 21.9293866,18.923409 20.820714,19.723409 C19.4656697,20.723409 18.1106254,21.723409 16.5092094,22.423409 C12.1977047,24.123409 8.00938594,23.823409 4.19062469,21.523409 C2.95876622,20.823409 1.97327945,20.023409 0.987792673,19.223409 C-0.244065794,18.223409 -0.367251641,16.623409 0.864606826,15.623409 C2.09646529,14.623409 3.94425299,14.623409 5.29929731,15.623409 C6.03841239,16.223409 6.77752747,16.723409 7.51664255,17.323409 C9.4876161,18.823409 12.4440764,18.923409 14.6614217,17.423409 C15.8932801,16.623409 17.0019527,15.723409 18.1106254,14.923409 C19.4656697,13.923409 20.820714,13.123409 22.5453158,12.623409 C25.5017762,11.723409 28.2118648,11.923409 30.9219534,13.223409 C32.2769977,13.823409 33.5088562,14.623409 34.6175288,15.523409 C35.3566439,16.123409 36.095759,16.723409 36.9580599,17.223409 C39.1754052,18.923409 42.2550513,18.923409 44.5955824,17.123409 C45.8274409,16.223409 46.9361135,15.323409 48.167972,14.523409 C49.8925738,13.323409 51.7403615,12.423409 54.0808926,12.123409 C56.6677954,11.723409 59.0083265,12.323409 61.2256717,13.523409 C62.3343443,14.123409 63.3198311,14.723409 64.182132,15.523409 C65.1676188,16.223409 66.0299197,17.023409 67.1385924,17.723409 C68.7400084,18.723409 71.3269111,18.823409 72.9283272,17.923409 C74.4065573,17.123409 75.6384158,16.123409 76.8702742,15.123409 C78.2253186,14.223409 79.5803629,13.323409 81.1817789,12.723409 C84.2614251,11.623409 87.2178854,11.823409 90.0511598,13.223409 C91.2830183,13.823409 92.5148768,14.623409 93.5003636,15.423409 C94.3626645,16.023409 95.1017796,16.623409 95.9640805,17.323409 C97.935054,18.823409 101.0147,18.923409 103.232045,17.323409 C104.340718,16.623409 105.326205,15.823409 106.311692,15.023409 C107.666736,14.123409 109.391338,14.123409 110.623196,15.123409 C111.608683,15.923409 111.978241,17.423409 110.992754,18.323409 C108.775409,20.323409 106.434877,22.123409 103.10886,23.123409 C102.000187,23.323409 100.891514,23.423409 100.029213,23.523409 Z" id="Wave-2"></path>
                        <path d="M100.029213,11.523409 C96.9495673,11.523409 94.4858503,10.823409 92.3916909,9.42340896 C91.2830183,8.72340896 90.2975315,7.92340896 89.3120448,7.12340896 C88.6961155,6.62340896 87.9570005,6.12340896 87.2178854,5.72340896 C85.8628411,4.92340896 84.3846109,4.82340896 82.9063807,5.62340896 C81.920894,6.12340896 81.058593,6.72340896 80.319478,7.32340896 C79.457177,8.02340896 78.4716903,8.72340896 77.4862035,9.32340896 C72.9283272,12.223409 67.2617782,12.223409 62.7039019,9.32340896 C61.7184151,8.62340896 60.7329283,7.92340896 59.8706274,7.22340896 C59.1315123,6.62340896 58.3923972,6.02340896 57.4069105,5.62340896 C56.175052,5.02340896 54.9431935,4.92340896 53.7113351,5.52340896 C52.6026624,6.02340896 51.6171757,6.72340896 50.7548747,7.42340896 C49.769388,8.12340896 48.907087,8.82340896 47.9216003,9.42340896 C43.3637239,12.223409 37.697175,12.223409 33.2624845,9.22340896 C32.2769977,8.52340896 31.291511,7.82340896 30.42921,7.12340896 C29.8132808,6.62340896 29.0741657,6.12340896 28.3350506,5.62340896 C26.8568205,4.82340896 25.5017762,4.82340896 24.1467319,5.52340896 C22.9148734,6.12340896 21.9293866,6.92340896 20.820714,7.72340896 C19.4656697,8.72340896 18.1106254,9.72340896 16.5092094,10.423409 C12.1977047,12.123409 8.00938594,11.823409 4.19062469,9.52340896 C2.95876622,8.82340896 1.97327945,8.02340896 0.987792673,7.22340896 C-0.244065794,6.22340896 -0.367251641,4.62340896 0.864606826,3.62340896 C2.09646529,2.62340896 3.94425299,2.62340896 5.29929731,3.62340896 C6.03841239,4.22340896 6.77752747,4.72340896 7.51664255,5.32340896 C9.4876161,6.82340896 12.4440764,6.92340896 14.6614217,5.42340896 C15.8932801,4.62340896 17.0019527,3.72340896 18.1106254,2.92340896 C19.4656697,1.92340896 20.820714,1.12340896 22.5453158,0.623408959 C25.5017762,-0.276591041 28.2118648,-0.0765910406 30.9219534,1.22340896 C32.2769977,1.82340896 33.5088562,2.62340896 34.6175288,3.52340896 C35.3566439,4.12340896 36.095759,4.72340896 36.9580599,5.22340896 C39.1754052,6.92340896 42.2550513,6.92340896 44.5955824,5.12340896 C45.8274409,4.22340896 46.9361135,3.32340896 48.167972,2.52340896 C49.8925738,1.32340896 51.7403615,0.423408959 54.0808926,0.123408959 C56.6677954,-0.276591041 59.0083265,0.323408959 61.2256717,1.52340896 C62.3343443,2.12340896 63.3198311,2.72340896 64.182132,3.52340896 C65.1676188,4.22340896 66.0299197,5.02340896 67.1385924,5.72340896 C68.7400084,6.72340896 71.3269111,6.82340896 72.9283272,5.92340896 C74.4065573,5.12340896 75.6384158,4.12340896 76.8702742,3.12340896 C78.2253186,2.22340896 79.5803629,1.32340896 81.1817789,0.723408959 C84.2614251,-0.376591041 87.2178854,-0.176591041 90.0511598,1.22340896 C91.2830183,1.82340896 92.5148768,2.62340896 93.5003636,3.42340896 C94.3626645,4.02340896 95.1017796,4.62340896 95.9640805,5.32340896 C97.935054,6.82340896 101.0147,6.92340896 103.232045,5.32340896 C104.340718,4.62340896 105.326205,3.82340896 106.311692,3.02340896 C107.666736,2.12340896 109.391338,2.12340896 110.623196,3.12340896 C111.608683,3.92340896 111.978241,5.42340896 110.992754,6.32340896 C108.775409,8.32340896 106.434877,10.123409 103.10886,11.123409 C102.000187,11.323409 100.891514,11.423409 100.029213,11.523409 Z" id="Wave-1"></path>
                    </g>
                </g>
                <path d="M37.4766249,28.8038349 C31.3917658,32.3643454 27.5060469,38.1511507 25.7364149,44.9461007 C23.966783,51.7395053 26.7422057,51.628809 28.3050177,45.6343557 C29.1118651,42.5395438 30.5197175,39.7017619 32.431851,37.2481801 C34.2233982,34.9493303 36.4576284,32.9877504 39.0549873,31.4680364 C47.7740788,26.3698922 59.0434308,29.2705338 64.1750523,37.9353699 C68.1932675,44.7225931 65.9073633,53.4909683 59.0807516,57.4857251 C56.5071657,58.9909062 53.4966144,59.4096989 50.6042459,58.6663805 C47.7134324,57.9230621 45.2860199,56.1041729 43.769859,53.5466013 C41.3548868,49.4668497 42.7295394,44.1940798 46.8317265,41.7956803 C48.3509975,40.9070981 50.1268496,40.6598404 51.832725,41.0987228 C53.5386004,41.5376051 54.9692343,42.6116307 55.8633804,44.1199025 C56.2987907,44.8570394 57.2520283,45.1012064 57.9906708,44.6685054 C58.7324234,44.2358045 58.9796742,43.2869532 58.5427089,42.552907 C57.2287028,40.3306786 55.1216279,38.7528656 52.6117984,38.1053595 C50.101969,37.4593989 47.4879521,37.8225586 45.2533641,39.1314789 C39.6723369,42.3952802 37.8031827,49.5642074 41.0889755,55.1120514 C43.0249964,58.3820342 46.1272948,60.7062563 49.8236174,61.6581984 C53.5199399,62.6085951 57.367101,62.0739003 60.657559,60.1468358 C68.9630107,55.2882225 71.7434166,44.6205993 66.8543808,36.366829 C60.8534936,26.2339005 47.6745565,22.8418343 37.4766249,28.8038349 Z" id="Spiral" stroke="#FFFFFF" stroke-width="2.5" fill="#FFFFFF" mask="url(#mask-2)" transform="translate(47.216466, 43.990245) rotate(-105.000000) translate(-47.216466, -43.990245) "></path>
            </g>
        </g>
        <path d="M147.8125,78.7382812 C142.421848,78.7382812 138.126969,76.974627 134.927734,73.4472656 C131.7285,69.9199042 130.128906,65.3906527 130.128906,59.859375 L130.128906,58.453125 C130.128906,52.9218473 131.716781,48.3340026 134.892578,44.6894531 C138.068375,41.0449037 142.046851,39.2343749 146.828125,39.2578125 C151.960963,39.2578125 155.892564,40.8105313 158.623047,43.9160156 C161.353529,47.0214999 162.71875,51.1874739 162.71875,56.4140625 L162.71875,61.4414062 L138.988281,61.4414062 L138.917969,61.6171875 C139.058594,64.6406401 139.943351,67.1132716 141.572266,69.0351562 C143.20118,70.9570409 145.457017,71.9179688 148.339844,71.9179688 C150.63673,71.9179688 152.605461,71.6367216 154.246094,71.0742188 C155.886727,70.5117159 157.468742,69.7031303 158.992188,68.6484375 L161.734375,74.2382812 C160.30468,75.5039126 158.406262,76.5703082 156.039062,77.4375 C153.671863,78.3046918 150.929703,78.7382812 147.8125,78.7382812 Z M146.828125,46.1132812 C144.718739,46.1132812 142.984382,46.9511635 141.625,48.6269531 C140.265618,50.3027428 139.421877,52.4296746 139.09375,55.0078125 L139.164062,55.1835938 L154.246094,55.1835938 L154.246094,54.3046875 C154.246094,51.8906129 153.630866,49.9218826 152.400391,48.3984375 C151.169916,46.8749924 149.312512,46.1132812 146.828125,46.1132812 Z M168.027344,59.5078125 C168.027344,53.4374696 169.328112,48.5449404 171.929688,44.8300781 C174.531263,41.1152158 178.187476,39.2578125 182.898438,39.2578125 C184.960948,39.2578125 186.806632,39.673824 188.435547,40.5058594 C190.064461,41.3378948 191.476557,42.527336 192.671875,44.0742188 L192.671875,23.15625 L201.214844,23.15625 L201.214844,78 L194.042969,78 L193.199219,73.2890625 C191.980463,75.0703214 190.515634,76.4238235 188.804688,77.3496094 C187.093741,78.2753953 185.101574,78.7382812 182.828125,78.7382812 C178.164039,78.7382812 174.531263,77.0390795 171.929688,73.640625 C169.328112,70.2421705 168.027344,65.7773714 168.027344,60.2460938 L168.027344,59.5078125 Z M176.570312,60.2460938 C176.570312,63.7617363 177.244134,66.5624896 178.591797,68.6484375 C179.93946,70.7343854 182.07811,71.7773438 185.007812,71.7773438 C186.812509,71.7773438 188.341791,71.3906289 189.595703,70.6171875 C190.849616,69.8437461 191.874996,68.7421946 192.671875,67.3125 L192.671875,50.71875 C191.874996,49.312493 190.843756,48.2168008 189.578125,47.4316406 C188.312494,46.6464804 186.812509,46.2539062 185.078125,46.2539062 C182.17186,46.2539062 180.027351,47.4785034 178.644531,49.9277344 C177.261712,52.3769654 176.570312,55.5702928 176.570312,59.5078125 L176.570312,60.2460938 Z M208.808594,59.5078125 C208.808594,53.4374696 210.109362,48.5449404 212.710938,44.8300781 C215.312513,41.1152158 218.968726,39.2578125 223.679688,39.2578125 C225.742198,39.2578125 227.587882,39.673824 229.216797,40.5058594 C230.845711,41.3378948 232.257807,42.527336 233.453125,44.0742188 L233.453125,23.15625 L241.996094,23.15625 L241.996094,78 L234.824219,78 L233.980469,73.2890625 C232.761713,75.0703214 231.296884,76.4238235 229.585938,77.3496094 C227.874991,78.2753953 225.882824,78.7382812 223.609375,78.7382812 C218.945289,78.7382812 215.312513,77.0390795 212.710938,73.640625 C210.109362,70.2421705 208.808594,65.7773714 208.808594,60.2460938 L208.808594,59.5078125 Z M217.351562,60.2460938 C217.351562,63.7617363 218.025384,66.5624896 219.373047,68.6484375 C220.72071,70.7343854 222.85936,71.7773438 225.789062,71.7773438 C227.593759,71.7773438 229.123041,71.3906289 230.376953,70.6171875 C231.630866,69.8437461 232.656246,68.7421946 233.453125,67.3125 L233.453125,50.71875 C232.656246,49.312493 231.625006,48.2168008 230.359375,47.4316406 C229.093744,46.6464804 227.593759,46.2539062 225.859375,46.2539062 C222.95311,46.2539062 220.808601,47.4785034 219.425781,49.9277344 C218.042962,52.3769654 217.351562,55.5702928 217.351562,59.5078125 L217.351562,60.2460938 Z M263.792969,62.7421875 L264.636719,66.5390625 L264.847656,66.5390625 L273.179688,39.9609375 L282.53125,39.9609375 L266.78125,83.765625 C265.773432,86.4140757 264.355478,88.6757719 262.527344,90.5507812 C260.69921,92.4257906 258.109392,93.3632812 254.757812,93.3632812 C254.054684,93.3632812 253.298832,93.2929695 252.490234,93.1523438 C251.681637,93.011718 250.902347,92.8476572 250.152344,92.6601562 L251.101562,86.0507812 C251.406252,86.0742189 251.839841,86.1093748 252.402344,86.15625 C252.964847,86.2031252 253.386717,86.2265625 253.667969,86.2265625 C255.214851,86.2265625 256.451167,85.699224 257.376953,84.6445312 C258.302739,83.5898385 259.058591,82.3711007 259.644531,80.9882812 L261.050781,77.5429688 L247.234375,39.9609375 L256.550781,39.9609375 L263.792969,62.7421875 Z" id="eddy" fill="#FFFFFF"></path>
    </g>
</svg>