<?xml version="1.0" standalone="no"?>
<!DOCTYPE svg PUBLIC "-//W3C//DTD SVG 20010904//EN"
 "http://www.w3.org/TR/2001/REC-SVG-20010904/DTD/svg10.dtd">
<svg version="1.0" xmlns="http://www.w3.org/2000/svg"
 width="500.000000pt" height="500.000000pt" viewBox="0 0 500.000000 500.000000"
 preserveAspectRatio="xMidYMid meet">
<metadata>
Created by potrace 1.11, written by Peter Selinger 2001-2013
</metadata>
<g transform="translate(0.000000,500.000000) scale(0.100000,-0.100000)"
fill="#000000" stroke="none">
<path d="M2427 4974 c-1 -1 -48 -4 -103 -7 -408 -24 -847 -174 -1196 -408
-465 -313 -805 -761 -979 -1291 -39 -120 -84 -307 -94 -391 -3 -23 -7 -58 -10
-77 -3 -19 -8 -53 -10 -75 -7 -47 -8 -411 -2 -440 3 -11 8 -51 12 -90 6 -58
20 -137 50 -281 13 -61 70 -237 106 -327 333 -837 1108 -1437 1992 -1541 26
-3 67 -9 92 -12 62 -8 333 -8 420 0 353 32 672 128 980 295 488 264 892 712
1099 1221 15 36 31 74 36 85 28 65 101 335 116 430 3 17 6 39 8 50 7 43 18
132 22 175 5 58 5 386 0 425 -2 17 -7 57 -11 90 -47 404 -218 830 -466 1165
-325 438 -774 752 -1294 903 -163 48 -207 57 -390 83 -67 9 -371 24 -378 18z
m383 -279 c394 -58 758 -214 1075 -463 104 -82 300 -284 381 -392 298 -398
447 -843 447 -1335 0 -126 -6 -230 -17 -310 -16 -113 -68 -333 -99 -420 l-14
-40 -84 -3 c-167 -5 -302 -61 -474 -196 -66 -52 -152 -106 -193 -120 -48 -17
-165 -14 -212 6 -28 12 -175 116 -275 195 -41 33 -238 118 -294 128 -16 3 -79
7 -140 9 -141 6 -211 14 -286 32 -315 78 -589 294 -710 559 -72 158 -93 373
-55 546 20 89 34 129 81 223 42 82 70 119 160 208 222 219 558 251 823 78 91
-59 158 -134 201 -224 41 -85 49 -125 48 -231 -2 -234 -167 -431 -375 -451
-142 -13 -284 62 -346 181 -20 40 -25 65 -26 120 0 76 21 131 75 192 96 110
-9 278 -145 233 -65 -21 -148 -128 -185 -237 -26 -78 -31 -105 -32 -188 -4
-321 283 -589 630 -587 89 1 116 5 202 32 115 35 230 116 312 220 92 115 132
199 162 340 13 61 15 265 2 315 -54 218 -150 364 -327 497 -237 179 -571 232
-860 137 -419 -138 -713 -580 -705 -1059 3 -125 9 -179 37 -285 54 -205 152
-372 313 -531 145 -143 326 -252 523 -314 l83 -26 -63 -45 c-78 -56 -139 -80
-210 -83 -92 -4 -151 23 -300 134 -173 130 -283 178 -424 187 -177 11 -306
-41 -539 -217 -38 -29 -95 -64 -125 -78 -111 -50 -275 -24 -321 52 -32 52
-115 257 -148 362 -33 110 -64 252 -82 389 -18 131 -15 447 5 570 9 55 19 115
22 134 13 77 76 288 119 393 227 556 666 996 1221 1222 190 78 444 140 623
153 47 3 87 7 89 8 11 9 339 -6 432 -20z m-1230 -3240 c19 -9 91 -59 160 -110
214 -158 317 -197 509 -191 179 6 277 44 467 183 189 138 254 159 358 114 42
-19 140 -82 156 -101 3 -4 30 -25 61 -48 153 -111 298 -158 469 -149 174 8
288 57 512 221 83 61 172 106 184 93 12 -11 -129 -231 -221 -347 -69 -86 -102
-117 -215 -201 -127 -95 -177 -119 -259 -126 -98 -8 -153 13 -280 110 -220
168 -336 219 -493 218 -138 -1 -267 -50 -423 -159 -84 -59 -85 -60 -124 -92
-54 -45 -128 -72 -198 -73 -37 -1 -81 2 -97 5 -38 9 -113 56 -227 140 -173
129 -302 178 -455 173 -147 -5 -265 -52 -438 -177 l-58 -43 -72 75 c-82 86
-151 169 -145 174 2 2 28 7 58 11 68 9 172 40 231 70 25 13 95 59 156 102 135
97 176 122 223 139 46 17 116 12 161 -11z m-4 -610 c17 -7 85 -53 152 -103
141 -105 186 -133 262 -161 177 -66 361 -58 533 22 40 19 128 74 197 124 151
108 177 122 240 130 72 8 134 -19 268 -119 126 -94 202 -139 285 -167 l52 -18
-63 -32 c-227 -115 -532 -204 -782 -228 -127 -12 -397 -7 -524 11 -247 35
-483 110 -710 225 -110 56 -286 166 -286 180 0 4 21 23 48 43 149 112 226 134
328 93z"/>
</g>
</svg>
