<svg xmlns="http://www.w3.org/2000/svg" width="152" height="44" viewBox="0 0 152 44" xmlns:xlink="http://www.w3.org/1999/xlink">
  <defs>
    <polygon id="a" points="24.901 .161 24.901 30.991 .277 30.991 .277 .161 24.901 .161"/>
    <polygon id="c" points="0 18.605 0 .096 7.405 .096 7.405 18.605 0 18.605"/>
  </defs>
  <g fill="none" fill-rule="evenodd">
    <g transform="translate(1 13)">
      <path fill="#00AEEF" d="M53.02,16.765 L53.02,14.433 L46.926,14.433 L46.926,9.966 L52.119,9.966 L52.119,7.679 L46.926,7.679 L46.926,3.741 L52.932,3.741 L52.932,1.409 L44,1.409 L44,16.765 L53.02,16.765 Z M55.132,11.991 L60.896,11.991 L60.896,9.703 L55.132,9.703 L55.132,11.991 Z M73.062,6.073 C73.062,9.483 70.951,11.353 67.254,11.353 L65.67,11.353 L65.67,16.765 L62.722,16.765 L62.722,1.409 L67.32,1.409 C68.024,1.409 68.707,1.452 69.344,1.584 C71.654,2.046 73.062,3.609 73.062,6.073 L73.062,6.073 Z M69.96,6.292 C69.96,5.061 69.411,4.159 68.333,3.851 C67.958,3.741 67.541,3.697 67.1,3.697 L65.67,3.697 L65.67,9.065 L67.409,9.065 C69.146,9.065 69.96,7.92 69.96,6.292 L69.96,6.292 Z M86.416,10.979 C86.416,14.542 84.238,17.073 80.455,17.073 C76.516,17.073 74.734,14.719 74.734,11.309 C74.734,7.59 76.846,5.149 80.696,5.149 C84.436,5.149 86.416,7.414 86.416,10.979 L86.416,10.979 Z M83.468,11.243 C83.468,8.889 82.61,7.37 80.542,7.37 C78.584,7.37 77.682,8.911 77.682,11.023 C77.682,13.487 78.518,14.828 80.652,14.828 C82.588,14.828 83.468,13.267 83.468,11.243 L83.468,11.243 Z M95.59,5.303 C95.172,5.193 94.82,5.149 94.249,5.149 C93.083,5.149 92.4,5.83 91.3,7.349 L91.037,5.456 L88.836,5.456 L88.836,16.765 L91.652,16.765 L91.652,9.769 C92.708,8.427 93.369,7.811 94.094,7.811 C94.424,7.811 95.018,7.899 95.26,7.964 L95.59,5.303 Z M103.203,16.743 L103.203,14.763 L102.3,14.763 C101.156,14.763 100.716,14.454 100.716,12.958 L100.716,7.59 L103.203,7.59 L103.203,5.456 L100.716,5.456 L100.716,2.179 L98.56,2.179 L97.9,5.456 L96.272,5.456 L96.272,7.59 L97.9,7.59 L97.9,13.817 C97.9,16.214 99.154,17.006 101.002,17.006 C101.816,17.006 102.696,16.918 103.203,16.743 L103.203,16.743 Z M111.672,2.179 L111.672,0.177 C111.166,0.067 110.616,0 109.913,0 C106.986,0 106.15,1.739 106.15,4.422 L106.15,5.456 L104.478,5.456 L104.478,7.59 L106.15,7.59 L106.15,16.765 L108.966,16.765 L108.966,7.59 L111.298,7.59 L111.298,5.456 L108.966,5.456 L108.966,4.313 C108.966,3.124 109.165,2.179 110.616,2.179 L111.672,2.179 Z M124.256,10.979 C124.256,14.542 122.079,17.073 118.294,17.073 C114.356,17.073 112.574,14.719 112.574,11.309 C112.574,7.59 114.686,5.149 118.537,5.149 C122.276,5.149 124.256,7.414 124.256,10.979 L124.256,10.979 Z M121.308,11.243 C121.308,8.889 120.451,7.37 118.382,7.37 C116.424,7.37 115.522,8.911 115.522,11.023 C115.522,13.487 116.358,14.828 118.493,14.828 C120.428,14.828 121.308,13.267 121.308,11.243 L121.308,11.243 Z M131.142,16.765 L131.142,14.741 L130.373,14.741 C129.712,14.741 129.493,14.367 129.493,13.619 L129.493,0.265 L126.676,0.265 L126.676,14.345 C126.676,16.391 127.82,17.006 129.382,17.006 C130.108,17.006 130.724,16.874 131.142,16.765 L131.142,16.765 Z M136.752,2.09 C136.752,1.078 136.026,0.397 135.014,0.397 C134.002,0.397 133.276,1.078 133.276,2.09 C133.276,3.103 134.002,3.785 135.014,3.785 C136.026,3.785 136.752,3.103 136.752,2.09 L136.752,2.09 Z M136.488,16.765 L136.488,5.456 L131.89,5.456 L131.89,7.59 L133.672,7.59 L133.672,16.765 L136.488,16.765 Z M150.612,10.979 C150.612,14.542 148.434,17.073 144.65,17.073 C140.712,17.073 138.93,14.719 138.93,11.309 C138.93,7.59 141.042,5.149 144.892,5.149 C148.632,5.149 150.612,7.414 150.612,10.979 L150.612,10.979 Z M147.665,11.243 C147.665,8.889 146.806,7.37 144.738,7.37 C142.78,7.37 141.878,8.911 141.878,11.023 C141.878,13.487 142.714,14.828 144.848,14.828 C146.785,14.828 147.665,13.267 147.665,11.243 L147.665,11.243 Z"/>
      <path fill="#00B4FF" d="M0.7129,6.6289 C0.6729,6.4739 0.6369,6.3169 0.5979,6.1609 C0.6349,6.3179 0.6709,6.4739 0.7129,6.6289"/>
      <path fill="#990099" d="M8.0547,4.3418 C8.0857,4.4828 8.1187,4.6208 8.1577,4.7588 C8.1217,4.6198 8.0887,4.4818 8.0547,4.3418"/>
    </g>
    <path fill="#04509F" d="M9.01200102,18.0815306 C9.01200102,18.0815306 9.97950028,21.6743878 10.9001522,22.5366327 C11.8208041,23.3988776 14.8618071,30.4356122 14.8618071,30.4356122 L14.7029335,31.2856122 L14.2415891,31.6784694 L8.21865163,30.6366327 L4.53604391,26.5866327 L2.61632169,22.8356122 C2.61632169,22.8356122 2.04600633,21.3427551 1.77612496,20.2509184 C1.50420675,19.1590816 5.51678263,18.4458163 5.51678263,18.4458163 L9.01200102,18.0815306 Z"/>
    <path fill="#04509F" d="M7.40473014,3.6055102 L4.81692422,4.05142857 L1.16690595,8.78204082 C1.16690595,8.78204082 0.413274948,14.3983673 1.50400306,19.1585714 L8.91097373,17.8759184 C8.91097373,17.8759184 8.34371364,15.1585714 8.96087632,12.3106122 C9.57905743,9.46367347 9.11974989,5.33408163 9.11974989,5.33408163 L7.40473014,3.6055102 Z"/>
    <g transform="translate(7.129 .41)">
      <mask id="b" fill="white">
        <use xlink:href="#a"/>
      </mask>
      <path fill="#00AEEF" d="M16.0683296,1.6205102 C10.7735626,-0.867244898 4.71192509,-0.0641836735 0.276704789,3.195 C0.401970483,3.59295918 0.46613096,4.01642857 0.450854656,4.45622449 C0.303183716,8.8194898 0.76147284,13.1205102 1.78294838,17.2603061 C1.41937234,15.6256122 1.56500644,13.8643878 2.32780322,12.2337755 C3.82793629,9.03071429 7.22538633,7.31438776 10.5535838,7.79908163 C11.2960122,7.9072449 12.0353853,8.12459184 12.7482795,8.46030612 C16.6600318,10.2990816 18.349591,14.9837755 16.5143977,18.9031633 C15.6253168,20.800102 14.0528759,22.2388776 12.0852879,22.9511224 C10.1156631,23.6654082 7.98614628,23.5664286 6.0939214,22.6756122 C3.94709146,21.667449 2.47547416,19.7980612 1.88275356,17.6705102 C3.07736055,22.3317347 4.99199067,26.7807143 7.57368606,30.8756122 C9.94558689,31.1654082 12.461085,30.9133673 14.7637332,30.0796939 C18.6296566,28.6796939 22.2379196,25.8705102 23.5771423,22.1378571 L23.5771423,22.1368367 C26.9246897,14.4409184 23.7492553,5.23071429 16.0683296,1.6205102" mask="url(#b)"/>
    </g>
    <path fill="#43ADE2" d="M1.74596201,20.1715109 C1.68622945,19.9369816 1.63121261,19.7008887 1.57305196,19.4647959 C1.62806879,19.7008887 1.68308563,19.9369816 1.74596201,20.1715109"/>
    <path fill="#92278E" d="M8.91148294,17.6710204 C8.95706832,17.8820968 9.00894133,18.0931731 9.06710198,18.2995589 C9.01051324,18.0916096 8.96178404,17.8820968 8.91148294,17.6710204"/>
    <path fill="#735CC5" d="M10.0154505,29.9368367 C5.73706694,27.9256122 2.81420075,24.1786735 1.68477266,19.9256122 C3.81428946,28.2592857 7.92157843,36.0154082 13.7876792,42.5796939 C14.4028051,43.2664286 15.2114308,43.6766327 16.0557012,43.7990816 C17.124024,43.9552041 18.2524337,43.6521429 19.1201278,42.8745918 C20.6742371,41.4807143 20.8056133,39.0888776 19.4144512,37.5317347 C17.6586947,35.5664286 16.0852354,33.4776531 14.703239,31.2858163 C14.5871391,31.272551 14.4700208,31.2633673 14.3549393,31.2460204 C12.871101,31.0296939 11.4106863,30.5929592 10.0154505,29.9368367"/>
    <g transform="translate(0 .86)">
      <mask id="d" fill="white">
        <use xlink:href="#c"/>
      </mask>
      <path fill="#735CC5" d="M2.61896958,8.57153061 C3.73923188,6.18173469 5.40638588,4.21438776 7.40452646,2.74602041 C6.93605313,1.25826531 5.57442522,0.154183673 3.93375016,0.0980612245 C1.84904385,0.0266326531 0.10245308,1.66234694 0.0311636604,3.75010204 C-0.139930946,8.81132653 0.390666018,13.8021429 1.57305196,18.6052041 C0.814328852,15.350102 1.09541285,11.8266327 2.61896958,8.57153061" mask="url(#d)"/>
    </g>
    <path fill="#034EA2" d="M8.91148294,17.6710204 C7.88898898,13.5302041 7.43171828,9.23020408 7.57938922,4.86693878 C7.59466552,4.42714286 7.53050504,4.00265306 7.40523935,3.60571429 C5.40709877,5.07408163 3.73892636,7.04142857 2.61866406,9.43122449 C1.09510732,12.6863265 0.814023326,16.2087755 1.57274643,19.464898 C1.61042798,19.6189796 1.64607269,19.7730612 1.68477266,19.9261224 C2.81420075,24.1791837 5.73706694,27.9261224 10.0154505,29.9373469 C11.4106863,30.592449 12.871101,31.0302041 14.3549393,31.2465306 C14.4700208,31.2628571 14.5871391,31.2720408 14.703239,31.2863265 C12.1205252,27.1914286 10.2058951,22.742449 9.01230655,18.0812245 C8.974625,17.9465306 8.94101713,17.8087755 8.91148294,17.6710204"/>
  </g>
</svg>
