<svg id="Layer_1" xmlns="http://www.w3.org/2000/svg" viewBox="0 0 177.2 35.7"><style>.st0{fill:#ff8000}</style><path class="st0" d="M33.2 16.8c-1.1-1.9-2.3-3.6-3.5-5.1-.1-.1-.2-.3-.3-.4-.6-.8-.5-1.4-.5-1.4-.4-4-.8-5.8-.8-6.3-.1-.6-.3-1.1-1.1-1.2-.7-.1-1.6-.2-2.7-.2-.9 0-1 .9-1 .9v1.5c0 .1 0 .2-.2.3-.1 0-.1 0-.2-.1-2.6-2.1-4.4-3.2-4.6-3.3-.5-.5-1.1-.5-1.1-.5s-.5 0-.9.3c-.5.3-8.7 5-15 15.4 0 0-.4.5-.1 1.1.3.5.8.5.8.5s2.2.3 2.6.3c.5 0 .5.4.5.4s-.1 6.6.8 13.6c0 0 .1.8.9.8.3 0 1.4-.1 4.4-.1.2 0 .2-.1.2-.2-.3-3-.4-5.5-.4-5.7 0-.2-.2-.2-.2-.2C8.9 26.1 9 24.1 9 24.1c0-5.9.4-10.4.4-10.4s0-.6.6-.6c.5 0 .5.7.5.7-.2 2.5-.3 7.1-.3 7.1s0 .9.8.9.8-.9.8-.9c0-3.6.3-7.1.3-7.1s0-.6.6-.6c.5 0 .5.7.5.7-.2 3.1-.3 7.1-.3 7.1s0 .9.8.9.8-.9.8-.9c0-3 .3-7.1.3-7.1s0-.6.6-.6c.5 0 .5.6.5.6-.3 3.2-.3 8.1-.3 10.2 0 2.1-1.5 3-1.7 3.1-.2.1-.1.3-.1.3.1 1.9.2 4.1.4 5.7 0 .1.1.2.2.2h6.8c.1 0 .2-.1.2-.2.3-2.8.4-4.8.4-5 0-.2-.2-.2-.2-.2-.4 0-1.2-.2-2-.3-.7-.1-.8-1-.8-1-.6-8.7 4-14.2 4-14.2s.4-.6 1.1-.4c.6.2.6.9.6.9.6 7.3 0 16.7-.4 20.1 0 .2.1.3.2.3 2 .1 2.9.1 3.1.1.8-.1.9-.8.9-.8 1-6.8.8-13.6.8-13.6s0-.4.5-.5c.4 0 2.6-.3 2.6-.3s.5 0 .8-.5c.5-.5.2-1 .2-1"/><path d="M51.9 15.8v-2.2c0-.3-.2-.5-.5-.5H39.5c-.3 0-.5.2-.5.5v2.2c0 .3.2.5.5.5h3.9c.1 0 .3.1.3.3V29c0 .3.2.5.5.5h2.6c.3 0 .5-.2.5-.5V16.5c0-.1.1-.2.2-.2h3.9c.2 0 .4-.2.5-.5"/><path d="M58.5 18.8c-.4-.5-.9-.9-1.6-1.1-.7-.3-1.5-.4-2.5-.4-.9 0-1.8.1-2.7.4-.7.2-1.3.6-1.9 1-.2.2-.2.5 0 .7l1.1 1.1c.2.2.5.2.7 0l.9-.6c.5-.2 1-.4 1.6-.4.6 0 1.1.2 1.6.5.4.3.6.9.7 1.9 0 .1-.1.2-.3.2h-1.3c-.6 0-1.1.1-1.7.1-.6.1-1.1.2-1.6.4s-1 .4-1.4.7c-.4.3-.7.7-1 1.1-.2.4-.4 1-.4 1.6 0 .6.1 1.1.3 1.5.2.4.5.8.9 1.1.4.3.8.5 1.3.7.5.1 1 .2 1.5.2.7 0 1.4-.1 2-.4.5-.2.9-.5 1.3-.9h.2l.1.1v.4c0 .3.2.5.5.5H59c.3 0 .5-.2.5-.5v-5.2c0-.9-.1-2.4-.2-3.1-.1-.5-.4-1.1-.8-1.6m-2.1 6.5c0 .4-.1.7-.2.9-.1.3-.3.5-.6.6-.2.2-.5.3-.8.4-.3.1-.6.1-1 .1s-.8-.1-1.1-.3c-.4-.2-.5-.5-.5-.9s.1-.7.4-.9c.3-.2.6-.4.9-.5.4-.1.7-.2 1.1-.2h1.6c.1 0 .2.1.2.3v.5zM92.9 18.8c-.4-.5-.9-.9-1.6-1.1-.7-.3-1.5-.4-2.5-.4-.9 0-1.8.1-2.7.4-.7.2-1.3.6-1.9 1-.2.2-.2.5 0 .7l1.1 1.1c.2.2.5.2.7 0l.9-.6c.5-.2 1-.4 1.6-.4.6 0 1.1.2 1.6.5.4.3.6.9.7 1.9 0 .1-.1.2-.3.2h-1.3c-.6 0-1.1.1-1.7.1-.6.1-1.1.2-1.6.4s-1 .4-1.4.7c-.4.3-.7.7-1 1.1-.2.4-.4 1-.4 1.6 0 .6.1 1.1.3 1.5.2.4.5.8.9 1.1.4.3.8.5 1.3.7.5.1 1 .2 1.5.2.7 0 1.4-.1 2-.4.5-.2.9-.5 1.3-.9h.2l.1.1v.4c0 .3.2.5.5.5h2.2c.3 0 .5-.2.5-.5v-5.2c0-.9-.1-2.4-.2-3.1-.1-.5-.4-1.1-.8-1.6m-2.1 6.5c0 .4-.1.7-.2.9-.1.3-.3.5-.6.6-.2.2-.5.3-.8.4-.3.1-.6.1-1 .1s-.8-.1-1.1-.3c-.4-.2-.5-.5-.5-.9s.1-.7.4-.9c.3-.2.6-.4.9-.5.4-.1.7-.2 1.1-.2h1.6c.1 0 .2.1.2.3v.5zM122.6 18.8c-.4-.5-.9-.9-1.6-1.1-.7-.3-1.5-.4-2.5-.4-.9 0-1.8.1-2.7.4-.7.2-1.3.6-1.9 1-.2.2-.2.5 0 .7l1.1 1.1c.2.2.5.2.7 0l.9-.6c.5-.2 1-.4 1.6-.4.6 0 1.1.2 1.6.5.4.3.6.9.7 1.9 0 .1-.1.2-.3.2h-1.3c-.6 0-1.1.1-1.7.1-.6.1-1.1.2-1.6.4s-1 .4-1.4.7c-.4.3-.7.7-1 1.1-.2.4-.4 1-.4 1.6 0 .6.1 1.1.3 1.5.2.4.5.8.9 1.1.4.3.8.5 1.3.7.5.1 1 .2 1.5.2.7 0 1.4-.1 2-.4.5-.2.9-.5 1.3-.9h.2l.1.1v.4c0 .3.2.5.5.5h2.2c.3 0 .5-.2.5-.5v-5.2c0-.9-.1-2.4-.2-3.1-.1-.5-.4-1.1-.8-1.6m-2.1 6.5c0 .4-.1.7-.2.9-.1.3-.3.5-.6.6-.2.2-.5.3-.8.4-.3.1-.6.1-1 .1s-.8-.1-1.1-.3c-.4-.2-.5-.5-.5-.9s.1-.7.4-.9c.3-.2.6-.4.9-.5.4-.1.7-.2 1.1-.2h1.6c.1 0 .2.1.2.3v.5zM81.6 18.9c-.5-.5-1-.9-1.7-1.2-.7-.3-1.4-.4-2.2-.4-.9 0-1.7.1-2.4.4-.8.3-1.4.7-2 1.2-.6.5-1 1.1-1.3 1.9-.3.7-.5 1.9-.5 2.8s.2 2 .5 2.8c.3.7.8 1.3 1.3 1.9.6.5 1.2.9 2 1.2.8.3 1.6.4 2.4.4.9 0 1.8-.2 2.6-.6.7-.3 1.2-.7 1.7-1.2.2-.2.2-.5 0-.7l-1.6-1.2V26c-.2-.1-.5-.1-.6.1-.2.2-.5.5-.7.6-.4.3-.9.4-1.4.4-.7 0-1.2-.2-1.7-.6-.4-.4-.8-1.1-.9-2 0-.1.1-.2.2-.3h7.3c.3 0 .5-.2.5-.5v-.6c0-.9-.1-1.7-.4-2.4-.3-.7-.7-1.3-1.1-1.8m-2.3 3h-4c-.1 0-.3-.1-.3-.2 0-.2.1-.4.2-.5.1-.3.3-.5.5-.7.2-.2.5-.4.7-.5.3-.1.6-.2 1-.2.6 0 1.1.2 1.5.6.3.4.5.8.6 1.3 0 .1-.1.2-.2.2"/><path d="M68.3 23.7l-.1-.1c-.1-.2-.1-.4 0-.5l4-5c.1-.1.1-.3 0-.4 0 0-.1-.1-.2-.1H68.8c-.3 0-.6.2-.8.4l-.2.2-3.1 4h-.2s0-.1-.1-.1v-9.6c0-.3-.2-.5-.5-.5h-2.5c-.3 0-.5.2-.5.5v16.4c0 .3.2.5.5.5h2.5c.3 0 .5-.2.5-.5v-4.6s0-.1.1-.1c.1-.1.2-.1.2 0l.1.1 3 4.5.2.2c.2.3.5.4.8.4h3.5c.1-.1.1-.2.1-.3l-4.1-5.4zM113.1 18.4c.1-.2.1-.3.1-.3V18c0-.2-.2-.4-.5-.4h-2c-.5 0-.9.4-1 .8l-.1.2-1.7 6.1s-.1.1-.2.1-.2-.1-.2-.1v-.1l-1.7-6.2v-.1c-.1-.4-.5-.7-1-.7h-2.1c-.5 0-.9.4-1 .8V18.7l-1.5 6.1c0 .1-.1.1-.2.1s-.1 0-.2-.1L98 18.7l-.1-.3v-.1c-.1-.4-.5-.7-1-.7h-2.2c-.2 0-.4.2-.5.4v.1c0 .1 0 .2.1.3l3.6 10.3v.1c.2.3.5.6.9.6h2.1c.4 0 .8-.3.9-.7l.1-.3 1.6-5.9s.1-.1.2-.1.1 0 .2.1l1.9 6c0 .1.1.3.1.3.2.3.5.6.9.6h2c.4 0 .7-.3.9-.6 0 0 .1-.2.1-.4l3.3-10M135.9 18c0-.1 0-.1 0 0-.1-.3-.3-.4-.5-.4h-2.1c-.4 0-.8.3-.9.6V18.5l-.1.2-1.9 6.2v.1c0 .1-.1.2-.3.2-.1 0-.2-.1-.2-.2l-2.3-6.3v-.1l-.2-.4c-.2-.3-.5-.5-.9-.5h-2.4c-.2 0-.3.2-.4.3v.4l4.5 11c0 .2.1.4 0 .7l-.1.2c-.1.3-.2.6-.3.8-.1.2-.2.4-.4.6-.2.2-.4.3-.6.4-.2.1-.6.1-.9.1h-1.5c-.3 0-.5.2-.5.5v1.9c0 .3.2.5.5.5h2c.8 0 1.5-.1 2-.2.5-.2.9-.4 1.3-.7.3-.3.6-.7.8-1.2.2-.5.4-1 .7-1.6l4.8-13.1c-.1-.2-.1-.3-.1-.3M135.4 27c-.4 0-.7.1-.9.4-.2.3-.4.6-.4.9 0 .3.1.6.4.9.2.3.5.4.9.4s.7-.1.9-.4c.2-.3.4-.6.4-.9 0-.3-.1-.6-.4-.9-.2-.3-.5-.4-.9-.4M156.9 18.9c-.5-.5-1.1-.9-1.8-1.2-.7-.3-1.5-.4-2.3-.4-.8 0-1.6.1-2.3.4-.7.3-1.3.7-1.8 1.2s-.9 1.1-1.2 1.8c-.3.7-.4 2.1-.4 2.9 0 .9.1 2 .4 2.7.3.7.7 1.3 1.2 1.8s1.1.9 1.8 1.2c.7.3 1.5.4 2.3.4.8 0 1.6-.1 2.3-.4.7-.3 1.3-.7 1.8-1.2s.9-1.1 1.2-1.8c.3-.7.4-1.8.4-2.7 0-.9-.1-2.2-.4-2.9-.3-.7-.7-1.3-1.2-1.8m-.6 6.7c-.2.5-.4.9-.8 1.3-.3.4-.7.7-1.2.9-.5.2-1 .3-1.6.3-.6 0-1.1-.1-1.6-.3-.5-.2-.9-.5-1.2-.9-.3-.4-.6-.8-.8-1.3-.2-.5-.3-1.3-.3-1.9 0-.6.1-1.7.3-2.2.2-.5.4-.9.8-1.3.3-.4.8-.7 1.2-.9.5-.2 1-.3 1.6-.3.6 0 1.1.1 1.6.3.5.2.9.5 1.2.9.3.4.6.8.8 1.3.2.5.3 1.6.3 2.2 0 .5-.1 1.4-.3 1.9M139.8 20.2c.3-.4.7-.7 1.2-.9.5-.2 1-.3 1.6-.3.5 0 1 .1 1.5.3.3.2.6.4.9.7.2.2.5.2.7 0l.7-.6c.2-.2.2-.5.1-.7-.5-.4-1-.7-1.5-1-.7-.3-1.5-.4-2.3-.4-.8 0-1.6.1-2.3.4-.7.3-1.3.7-1.8 1.2s-.9 1.1-1.2 1.8c-.3.7-.4 1.9-.4 2.7 0 .8.1 2.1.4 2.8.3.7.7 1.3 1.1 1.8.5.5 1.1.9 1.8 1.2.7.3 1.5.4 2.3.4.8 0 1.5-.1 2.3-.4.6-.2 1.1-.5 1.5-1 .2-.2.2-.5 0-.7l-.6-.6c-.2-.2-.5-.2-.7 0-.6.6-1.4 1-2.5 1-.6 0-1.1-.1-1.5-.3-.5-.2-.8-.5-1.2-.9-.3-.4-.6-.8-.7-1.3-.2-.5-.3-1.5-.3-2 0-.6.1-1.5.2-2 .1-.4.4-.9.7-1.2M175.9 20c-.1-.6-.4-1-.7-1.4-.3-.4-.8-.7-1.3-.9-.5-.2-1.2-.3-2-.3s-1.5.2-2.1.5c-.4.3-.8.7-1.2 1.2 0 0 0 .1-.1.1l-.1.1c-.1 0-.1 0-.2-.1v-.1c-.1-.1-.1-.2-.2-.3-.1-.2-.4-.5-.6-.7-.3-.2-.6-.4-1-.5-.4-.1-.9-.2-1.5-.2-.5 0-.9.1-1.3.2s-.7.3-1 .5c-.3.2-.6.4-.8.7-.1.1-.1.2-.2.3l-.1.1c-.1 0-.2-.1-.2-.1v-.8c0-.3-.2-.5-.5-.5h-.7c-.3 0-.5.2-.5.5V29.1c0 .3.2.5.5.5h.8c.3 0 .5-.2.5-.5v-5.7c0-.6.1-1.2.2-1.7s.3-1 .6-1.3c.3-.4.6-.7 1-.9.4-.2.9-.3 1.5-.3.7 0 1.3.3 1.6.8.3.5.5 1.4.5 2.6v6.6c0 .3.2.5.5.5h.8c.3 0 .5-.2.5-.5v-6.7c0-.5.1-.9.2-1.3s.4-.7.6-1c.3-.3.6-.5.9-.7.3-.2.7-.2 1.1-.2.5 0 1 .1 1.3.3.3.2.6.4.8.7.2.3.3.6.4 1 .1.4.1.7.1 1.1v6.9c0 .3.2.5.5.5h.8c.3 0 .5-.2.5-.5v-7c.3-1.1.2-1.8.1-2.3"/></svg>
