<?xml version="1.0" encoding="utf-8"?>
<!-- Generator: Adobe Illustrator 19.0.0, SVG Export Plug-In . SVG Version: 6.00 Build 0)  -->
<svg version="1.1" id="Layer_1" xmlns="http://www.w3.org/2000/svg" xmlns:xlink="http://www.w3.org/1999/xlink" x="0px"
     y="0px"
     viewBox="0 0 12 11.9" style="enable-background:new 0 0 12 11.9;" xml:space="preserve">
<style type="text/css">
	.st0{fill:#405D7F;}
</style>
    <g id="Artboards_01">
	<g id="SUBMENU-DIENSTEN" transform="translate(-250.000000, -51.000000)">
		<g id="Page-1" transform="translate(250.000000, 25.000000)">
			<path id="Fill-39" class="st0" d="M9.1,34.3H7.4v-3c0-0.3-0.3-0.6-0.6-0.6H4.6v3.6H2.9v-4.8h4.8c0.8,0,1.4,0.6,1.4,1.4V34.3z
				 M4.1,28.2c0,0,0.6,0.3,1.3,0.2c0.2,0,0.5-0.1,0.7-0.1c1.1-0.3,2,0.1,2.1,0.2c0,0,0,0,0,0l0,0l0,0l0,0l-0.2,0.4
				c0,0-0.5-0.2-1.1-0.2c0,0,0,0,0,0c0,0-0.1,0-0.1,0c-0.2,0-0.5,0.1-0.8,0.1c-1.2,0.3-2.1-0.2-2.1-0.2L4.1,28.2z M0,37.9h12V26H0
				V37.9z"/>
		</g>
	</g>
</g>
</svg>
